<?xml version="1.0" standalone="no"?>
<!DOCTYPE svg PUBLIC "-//W3C//DTD SVG 20010904//EN"
 "http://www.w3.org/TR/2001/REC-SVG-20010904/DTD/svg10.dtd">
<svg version="1.0" xmlns="http://www.w3.org/2000/svg"
 width="120.000000pt" height="44.000000pt" viewBox="0 0 120.000000 44.000000"
 preserveAspectRatio="xMidYMid meet">

<g transform="translate(0.000000,44.000000) scale(0.100000,-0.100000)"
fill="#000000" stroke="none">
<path d="M279 271 c-31 -25 -33 -96 -4 -117 25 -19 64 -18 87 3 17 15 18 15
18 -2 0 -14 5 -16 28 -11 15 4 32 7 37 7 6 0 22 -3 38 -7 34 -8 35 4 6 80 -25
65 -37 70 -14 6 19 -55 19 -63 -2 -51 -10 5 -22 9 -28 9 -5 0 -18 -4 -27 -9
-22 -12 -22 -4 -3 51 8 24 13 45 11 47 -2 2 -12 -19 -21 -47 -16 -50 -18 -51
-36 -34 -13 12 -16 21 -9 28 18 18 11 46 -16 56 -34 13 -38 13 -65 -9z m67 -5
c18 -13 17 -14 -15 -13 -41 2 -62 -22 -41 -48 10 -12 23 -15 43 -11 25 5 28 4
17 -9 -27 -32 -80 -6 -80 40 0 13 10 31 22 39 27 19 29 20 54 2z"/>
<path d="M538 279 c-14 -7 -18 -23 -18 -62 0 -57 12 -77 46 -77 34 0 45 23 41
80 -5 64 -28 84 -69 59z m35 -17 c-28 -4 -30 -22 -4 -29 11 -3 22 -12 26 -21
7 -19 -20 -43 -41 -35 -22 8 -17 22 6 16 29 -8 25 12 -7 36 -27 20 -27 22 -10
35 11 8 26 12 35 8 14 -6 13 -7 -5 -10z"/>
<path d="M851 277 c-36 -18 -48 -73 -23 -106 44 -59 130 -25 118 47 -9 57 -50
82 -95 59z m57 -13 c39 -27 19 -94 -28 -94 -47 0 -67 67 -28 94 12 9 25 16 28
16 3 0 16 -7 28 -16z"/>
<path d="M849 244 c-17 -21 0 -48 34 -52 18 -2 27 2 32 18 13 41 -38 68 -66
34z"/>
<path d="M632 213 c-2 -67 0 -73 18 -73 18 0 20 7 20 70 0 39 -4 70 -10 70 -5
0 -7 -20 -4 -46 2 -25 1 -51 -3 -57 -5 -7 -11 15 -14 48 l-6 60 -1 -72z"/>
<path d="M686 228 c-5 -32 -6 -64 -2 -73 7 -20 46 -20 46 0 0 19 16 19 24 0 3
-8 15 -15 26 -15 18 0 20 6 18 73 -2 69 -2 70 -5 15 -4 -61 -15 -72 -34 -36
-16 30 -35 48 -43 41 -3 -4 -7 -20 -8 -37 -1 -17 -4 -4 -7 29 l-7 60 -8 -57z"/>
<path d="M720 268 c5 -7 18 -24 29 -37 l18 -25 5 37 c2 20 0 37 -4 37 -4 0 -8
-10 -9 -22 l0 -23 -16 23 c-8 12 -20 22 -25 22 -5 0 -4 -6 2 -12z"/>
<path d="M436 243 c-12 -12 -6 -43 9 -43 8 0 15 9 15 19 0 21 -13 34 -24 24z"/>
</g>
</svg>
